<svg width="189" height="60" viewBox="0 0 189 60" fill="none" xmlns="http://www.w3.org/2000/svg">
<rect width="189" height="60" rx="30" fill="#1B442A"/>
<path d="M36.848 37.192C36.0053 37.192 35.232 37.0427 34.528 36.744C33.824 36.4347 33.2107 36.008 32.688 35.464C32.176 34.9093 31.776 34.2587 31.488 33.512C31.2 32.7653 31.056 31.944 31.056 31.048C31.056 30.152 31.2 29.3307 31.488 28.584C31.776 27.8373 32.176 27.1867 32.688 26.632C33.2107 26.0773 33.824 25.6507 34.528 25.352C35.232 25.0427 36.0053 24.888 36.848 24.888C37.6587 24.888 38.384 25.032 39.024 25.32C39.6747 25.608 40.2187 25.9813 40.656 26.44C41.104 26.888 41.424 27.3627 41.616 27.864L40.464 28.424C40.1653 27.6987 39.7067 27.128 39.088 26.712C38.4693 26.296 37.7227 26.088 36.848 26.088C35.9733 26.088 35.1947 26.296 34.512 26.712C33.8293 27.128 33.296 27.7093 32.912 28.456C32.528 29.192 32.336 30.056 32.336 31.048C32.336 32.0293 32.528 32.8933 32.912 33.64C33.296 34.3867 33.8293 34.968 34.512 35.384C35.1947 35.7893 35.9733 35.992 36.848 35.992C37.6267 35.992 38.3253 35.8213 38.944 35.48C39.5733 35.1387 40.0693 34.6747 40.432 34.088C40.7947 33.4907 40.976 32.808 40.976 32.04V31.384L41.552 31.96H36.848V30.84H42.256V31.832C42.256 32.6107 42.1173 33.3307 41.84 33.992C41.5627 34.6427 41.1787 35.208 40.688 35.688C40.1973 36.168 39.6213 36.5413 38.96 36.808C38.3093 37.064 37.6053 37.192 36.848 37.192ZM48.2766 37.192C47.4766 37.192 46.7513 37 46.1006 36.616C45.4606 36.2213 44.954 35.6827 44.5806 35C44.2073 34.3173 44.0206 33.544 44.0206 32.68C44.0206 31.816 44.202 31.0533 44.5646 30.392C44.9273 29.72 45.418 29.192 46.0366 28.808C46.666 28.424 47.37 28.232 48.1486 28.232C48.7673 28.232 49.3166 28.3493 49.7966 28.584C50.2873 28.808 50.7033 29.1173 51.0446 29.512C51.386 29.896 51.6473 30.3333 51.8286 30.824C52.01 31.304 52.1006 31.8 52.1006 32.312C52.1006 32.4187 52.0953 32.5413 52.0846 32.68C52.074 32.808 52.058 32.9413 52.0366 33.08H44.7886V31.96H51.3486L50.7726 32.44C50.8686 31.8533 50.7993 31.3307 50.5646 30.872C50.3406 30.4027 50.0153 30.0347 49.5886 29.768C49.162 29.4907 48.682 29.352 48.1486 29.352C47.6153 29.352 47.1193 29.4907 46.6606 29.768C46.2126 30.0453 45.8606 30.4347 45.6046 30.936C45.3486 31.4267 45.2473 32.0133 45.3006 32.696C45.2473 33.3787 45.354 33.976 45.6206 34.488C45.898 34.9893 46.2713 35.3787 46.7406 35.656C47.2206 35.9333 47.7326 36.072 48.2766 36.072C48.906 36.072 49.434 35.9227 49.8606 35.624C50.2873 35.3253 50.634 34.952 50.9006 34.504L51.9246 35.048C51.754 35.432 51.4926 35.7893 51.1406 36.12C50.7886 36.44 50.3673 36.7013 49.8766 36.904C49.3966 37.096 48.8633 37.192 48.2766 37.192ZM57.4964 37.096C56.7284 37.096 56.1364 36.872 55.7204 36.424C55.3044 35.976 55.0964 35.336 55.0964 34.504V29.624H53.5124V28.424H53.9124C54.275 28.424 54.563 28.3067 54.7764 28.072C54.9897 27.8267 55.0964 27.5227 55.0964 27.16V26.44H56.2964V28.424H58.1844V29.624H56.2964V34.504C56.2964 34.792 56.339 35.048 56.4244 35.272C56.5097 35.4853 56.6537 35.656 56.8564 35.784C57.0697 35.912 57.3524 35.976 57.7044 35.976C57.7897 35.976 57.891 35.9707 58.0084 35.96C58.1257 35.9493 58.227 35.9387 58.3124 35.928V37C58.1844 37.032 58.0404 37.0533 57.8804 37.064C57.7204 37.0853 57.5924 37.096 57.4964 37.096ZM67.3303 37.192C66.5729 37.192 65.8849 37.048 65.2663 36.76C64.6476 36.472 64.1249 36.088 63.6983 35.608C63.2716 35.1173 62.9676 34.5787 62.7863 33.992L63.9383 33.56C64.2156 34.3707 64.6476 34.9893 65.2343 35.416C65.8209 35.832 66.5196 36.04 67.3303 36.04C67.8423 36.04 68.2903 35.96 68.6743 35.8C69.0689 35.6293 69.3729 35.3947 69.5863 35.096C69.7996 34.7973 69.9062 34.4507 69.9062 34.056C69.9062 33.4693 69.7463 33.016 69.4263 32.696C69.1063 32.376 68.6476 32.1307 68.0503 31.96L65.9062 31.32C65.0636 31.0747 64.4129 30.664 63.9543 30.088C63.5063 29.512 63.2823 28.856 63.2823 28.12C63.2823 27.4907 63.4369 26.936 63.7463 26.456C64.0556 25.9653 64.4769 25.5813 65.0103 25.304C65.5543 25.0267 66.1676 24.888 66.8503 24.888C67.5649 24.888 68.2049 25.0213 68.7703 25.288C69.3463 25.544 69.8316 25.8853 70.2263 26.312C70.6209 26.7387 70.9036 27.2133 71.0743 27.736L69.9543 28.184C69.6983 27.48 69.2983 26.9467 68.7543 26.584C68.2209 26.2213 67.5916 26.04 66.8663 26.04C66.4076 26.04 66.0023 26.12 65.6503 26.28C65.3089 26.44 65.0423 26.6693 64.8503 26.968C64.6583 27.2667 64.5623 27.6187 64.5623 28.024C64.5623 28.5147 64.7169 28.9573 65.0263 29.352C65.3356 29.736 65.8103 30.024 66.4503 30.216L68.3383 30.776C69.2769 31.0533 69.9863 31.4533 70.4663 31.976C70.9463 32.4987 71.1863 33.1547 71.1863 33.944C71.1863 34.584 71.0209 35.1493 70.6903 35.64C70.3703 36.12 69.9169 36.4987 69.3303 36.776C68.7543 37.0533 68.0876 37.192 67.3303 37.192ZM76.762 37.096C75.994 37.096 75.402 36.872 74.986 36.424C74.57 35.976 74.362 35.336 74.362 34.504V29.624H72.778V28.424H73.178C73.5407 28.424 73.8287 28.3067 74.042 28.072C74.2553 27.8267 74.362 27.5227 74.362 27.16V26.44H75.562V28.424H77.45V29.624H75.562V34.504C75.562 34.792 75.6047 35.048 75.69 35.272C75.7753 35.4853 75.9193 35.656 76.122 35.784C76.3353 35.912 76.618 35.976 76.97 35.976C77.0553 35.976 77.1567 35.9707 77.274 35.96C77.3913 35.9493 77.4927 35.9387 77.578 35.928V37C77.45 37.032 77.306 37.0533 77.146 37.064C76.986 37.0853 76.858 37.096 76.762 37.096ZM82.0089 37.192C81.4649 37.192 80.9795 37.0907 80.5529 36.888C80.1262 36.6747 79.7902 36.3867 79.5449 36.024C79.2995 35.6613 79.1769 35.2453 79.1769 34.776C79.1769 34.328 79.2729 33.9227 79.4649 33.56C79.6569 33.1867 79.9555 32.872 80.3609 32.616C80.7662 32.36 81.2835 32.1787 81.9129 32.072L85.2729 31.512V32.6L82.2009 33.112C81.5822 33.2187 81.1342 33.416 80.8569 33.704C80.5902 33.992 80.4569 34.3333 80.4569 34.728C80.4569 35.112 80.6062 35.4373 80.9049 35.704C81.2142 35.9707 81.6089 36.104 82.0889 36.104C82.6755 36.104 83.1875 35.9813 83.6249 35.736C84.0622 35.48 84.4035 35.1387 84.6489 34.712C84.8942 34.2853 85.0169 33.8107 85.0169 33.288V31.112C85.0169 30.6 84.8302 30.184 84.4569 29.864C84.0835 29.544 83.5982 29.384 83.0009 29.384C82.4782 29.384 82.0195 29.5173 81.6249 29.784C81.2302 30.04 80.9369 30.376 80.7449 30.792L79.6569 30.2C79.8169 29.8373 80.0675 29.5067 80.4089 29.208C80.7609 28.9093 81.1609 28.6747 81.6089 28.504C82.0569 28.3227 82.5209 28.232 83.0009 28.232C83.6302 28.232 84.1849 28.3547 84.6649 28.6C85.1555 28.8453 85.5342 29.1867 85.8009 29.624C86.0782 30.0507 86.2169 30.5467 86.2169 31.112V37H85.0169V35.288L85.1929 35.464C85.0435 35.784 84.8089 36.0773 84.4889 36.344C84.1795 36.6 83.8115 36.808 83.3849 36.968C82.9689 37.1173 82.5102 37.192 82.0089 37.192ZM88.6851 37V28.424H89.8851V29.832L89.7251 29.624C89.9278 29.2187 90.2318 28.8987 90.6371 28.664C91.0531 28.4293 91.5545 28.312 92.1411 28.312H92.6851V29.512H91.9331C91.3145 29.512 90.8185 29.704 90.4451 30.088C90.0718 30.472 89.8851 31.016 89.8851 31.72V37H88.6851ZM97.3714 37.096C96.6034 37.096 96.0114 36.872 95.5954 36.424C95.1794 35.976 94.9714 35.336 94.9714 34.504V29.624H93.3874V28.424H93.7874C94.15 28.424 94.438 28.3067 94.6514 28.072C94.8647 27.8267 94.9714 27.5227 94.9714 27.16V26.44H96.1714V28.424H98.0594V29.624H96.1714V34.504C96.1714 34.792 96.214 35.048 96.2994 35.272C96.3847 35.4853 96.5287 35.656 96.7314 35.784C96.9447 35.912 97.2274 35.976 97.5794 35.976C97.6647 35.976 97.766 35.9707 97.8834 35.96C98.0007 35.9493 98.102 35.9387 98.1874 35.928V37C98.0594 37.032 97.9154 37.0533 97.7554 37.064C97.5954 37.0853 97.4674 37.096 97.3714 37.096ZM103.886 37.192C103.086 37.192 102.361 37 101.71 36.616C101.07 36.2213 100.563 35.6827 100.19 35C99.8167 34.3173 99.63 33.544 99.63 32.68C99.63 31.816 99.8113 31.0533 100.174 30.392C100.537 29.72 101.027 29.192 101.646 28.808C102.275 28.424 102.979 28.232 103.758 28.232C104.377 28.232 104.926 28.3493 105.406 28.584C105.897 28.808 106.313 29.1173 106.654 29.512C106.995 29.896 107.257 30.3333 107.438 30.824C107.619 31.304 107.71 31.8 107.71 32.312C107.71 32.4187 107.705 32.5413 107.694 32.68C107.683 32.808 107.667 32.9413 107.646 33.08H100.398V31.96H106.958L106.382 32.44C106.478 31.8533 106.409 31.3307 106.174 30.872C105.95 30.4027 105.625 30.0347 105.198 29.768C104.771 29.4907 104.291 29.352 103.758 29.352C103.225 29.352 102.729 29.4907 102.27 29.768C101.822 30.0453 101.47 30.4347 101.214 30.936C100.958 31.4267 100.857 32.0133 100.91 32.696C100.857 33.3787 100.963 33.976 101.23 34.488C101.507 34.9893 101.881 35.3787 102.35 35.656C102.83 35.9333 103.342 36.072 103.886 36.072C104.515 36.072 105.043 35.9227 105.47 35.624C105.897 35.3253 106.243 34.952 106.51 34.504L107.534 35.048C107.363 35.432 107.102 35.7893 106.75 36.12C106.398 36.44 105.977 36.7013 105.486 36.904C105.006 37.096 104.473 37.192 103.886 37.192ZM113.698 37.192C112.898 37.192 112.178 37 111.538 36.616C110.898 36.2213 110.391 35.688 110.018 35.016C109.655 34.3333 109.474 33.5653 109.474 32.712C109.474 31.848 109.655 31.08 110.018 30.408C110.391 29.736 110.892 29.208 111.522 28.824C112.162 28.4293 112.887 28.232 113.698 28.232C114.434 28.232 115.09 28.392 115.666 28.712C116.242 29.032 116.695 29.464 117.026 30.008L116.834 30.344V24.888H118.034V37H116.834V35.08L117.026 35.256C116.727 35.8747 116.279 36.3547 115.682 36.696C115.095 37.0267 114.434 37.192 113.698 37.192ZM113.762 35.992C114.338 35.992 114.855 35.848 115.314 35.56C115.783 35.272 116.151 34.8827 116.418 34.392C116.695 33.8907 116.834 33.3307 116.834 32.712C116.834 32.0933 116.695 31.5387 116.418 31.048C116.151 30.5467 115.783 30.152 115.314 29.864C114.855 29.576 114.338 29.432 113.762 29.432C113.196 29.432 112.684 29.576 112.226 29.864C111.767 30.152 111.404 30.5413 111.138 31.032C110.882 31.5227 110.754 32.0827 110.754 32.712C110.754 33.3307 110.882 33.8907 111.138 34.392C111.404 34.8827 111.762 35.272 112.21 35.56C112.668 35.848 113.186 35.992 113.762 35.992Z" fill="white"/>
<g clip-path="url(#clip0_42_740)">
<path d="M142.167 37L149.167 30L142.167 23" stroke="white" stroke-width="2" stroke-linecap="round" stroke-linejoin="round"/>
</g>
<defs>
<clipPath id="clip0_42_740">
<rect width="28" height="28" fill="white" transform="matrix(-1 0 0 1 159 16)"/>
</clipPath>
</defs>
</svg>
