<svg width="175" height="50" viewBox="0 0 175 50" fill="none" xmlns="http://www.w3.org/2000/svg">
<circle cx="25" cy="25" r="24.5786" fill="#014527" stroke="#1B442A" stroke-width="0.842767"/>
<path fill-rule="evenodd" clip-rule="evenodd" d="M19.2104 15H30.7894C33.1148 15 34.9999 16.8851 34.9999 19.2105V30.7895C34.9999 33.1149 33.1148 35 30.7894 35H19.2104C16.885 35 14.9999 33.1149 14.9999 30.7895V19.2105C14.9999 16.8851 16.885 15 19.2104 15Z" fill="#014527" stroke="white" stroke-width="0.842767"/>
<ellipse cx="24.9999" cy="25.0005" rx="4.73684" ry="4.73684" fill="#014527" stroke="white" stroke-width="0.842767"/>
<ellipse cx="31.3157" cy="18.6854" rx="1.05263" ry="1.05263" fill="#014527"/>
<circle cx="87.4999" cy="25" r="24.5786" fill="#014527" stroke="#1B442A" stroke-width="0.842767"/>
<path fill-rule="evenodd" clip-rule="evenodd" d="M90.2073 13.7502C91.2425 13.7466 92.2771 13.8022 93.3064 13.9165C93.5603 13.9518 93.7499 14.1791 93.7499 14.448V18.1389C93.7497 18.4347 93.5213 18.6742 93.2397 18.6741L91.159 18.6751C89.9214 18.6751 89.7221 19.1093 89.7221 20.1483V22.2472H93.1032C93.1254 22.2472 93.1476 22.2487 93.1697 22.2517C93.449 22.29 93.6459 22.5587 93.6094 22.8519L93.1022 26.9775C93.069 27.2445 92.8523 27.4441 92.596 27.4442H89.7221V35.7147C89.7219 36.0104 89.4935 36.25 89.2119 36.2498H85.1526C84.8709 36.2497 84.6427 36.0099 84.6429 35.7141V27.4442H81.7595C81.4779 27.444 81.2497 27.2042 81.2499 26.9085V22.7823C81.25 22.4866 81.4784 22.247 81.7601 22.2472H84.6429V19.7392C84.6429 16.0446 86.7754 13.7502 90.2073 13.7502ZM91.1591 17.6038L92.7296 17.6027V14.9315C92.1666 14.8803 91.2368 14.8217 90.2075 14.8217C87.3624 14.8217 85.6635 16.66 85.6635 19.7393V22.7836C85.6633 23.0793 85.4349 23.3189 85.1532 23.3187H82.2704V26.3728H85.1539C85.4354 26.373 85.6636 26.6128 85.6635 26.9085V35.1785H88.7018V26.908C88.7019 26.6122 88.9303 26.3727 89.212 26.3728H92.1476L92.5233 23.3187H89.2114C88.9298 23.3185 88.7016 23.0787 88.7018 22.783V20.1484C88.7018 19.056 88.9569 17.6038 91.1591 17.6038Z" fill="white"/>
<circle cx="150" cy="25" r="24.5786" fill="#014527" stroke="#1B442A" stroke-width="0.842767"/>
<path fill-rule="evenodd" clip-rule="evenodd" d="M147.77 26.0312L140.049 15H146L151.062 22.2318L157.328 15H159.076L151.844 23.3483L160 35H154.049L148.552 27.1477L141.749 35H140L147.77 26.0312ZM145.354 16.377H142.62L154.694 33.6241H157.428L145.354 16.377Z" fill="white"/>
</svg>
